<svg xmlns="http://www.w3.org/2000/svg" viewBox="0 0 24 24"><path fill="#88aa00" d="m-1.8-1.6c9.3 0 18.5 0 27.8 0 0.9 0.5 0.7 1.8 0.8 2.7 0 7.4 0 14.8 0 22.2 0 0.9-0.4 2-1.4 1.7-9 0-18 0-27 0-0.9-0.5-0.7-1.8-0.7-2.7 0-7.4 0-14.8 0-22.2 0.1-0.6 0.1-1.5 0.7-1.7z"/><path fill="#d45500" d="M4.2 21.3C9.3 21.3 14.4 21.3 19.5 21.3 18.6 17.5 17.6 13.7 16.6 9.9 12 8.5 7.4 7.1 2.8 5.8 3.3 10.9 3.8 16.1 4.2 21.3z"/><path fill="#c83737" d="M11.5 6.6C10.7 10.3 9.9 13.9 9.2 17.6 12.3 17.6 15.4 17.5 18.6 17.5 19.2 13.7 19.8 9.8 20.4 6 17.4 6.2 14.5 6.4 11.5 6.6z"/><rect fill="#008080" width="10.6" height="13.1" x="5.8" y="1.1" ry="2.1"/><text x="6.8" y="23.2" transform="scale(1.08,0.93)" style="font-family:Betsy Flanagan;font-size:24px">S</text></svg>